<svg width="596" height="440" viewBox="0 0 596 440" fill="none" xmlns="http://www.w3.org/2000/svg"><g filter="url(#filter0_d)"><path fill="#fff" d="M294.256 124.943h250.671v92.352H294.256z"/><path fill-rule="evenodd" clip-rule="evenodd" d="M232.11 15l85.736 49.5 14.15 8.17H566.84V353.33H331.996l-14.15 8.169L232.11 411l-85.737-49.5L60.637 312v-96.965H91.64v11.842h9.574v-20.534h-6.677v-79.487h-9.951v79.236H62.92v-79.236h-2.283V114l85.736-49.5L232.11 15zm-49.883 150.907V135.8h26.453v-8.944h-36.279v88.179h36.279v-8.943h-26.453v-31.367h21.54v-8.818h-21.54zm129.762 9.448v39.68h9.825v-88.179h-9.825v39.681h-21.667v-39.681h-9.826v88.179h9.826v-39.68h21.667zm105.953 39.68V135.8h16.251v-8.944h-42.327v8.944h16.251v79.235h9.825zm86.303-88.179v88.179h9.825v-34.767h8.692c13.983 0 20.533-7.307 20.533-21.29v-10.581c0-13.353-5.92-21.541-19.777-21.541h-19.273zm9.825 44.593V135.8h9.448c7.18 0 10.078 4.031 10.078 12.093v11.715c0 8.44-3.527 11.841-10.834 11.841h-8.692z" fill="#1F1D1A"/><path fill-rule="evenodd" clip-rule="evenodd" d="M186.473 15l85.736 49.5 29.082 17.742-.058 262.059-29.024 17.199-85.736 49.5-85.736-49.5L15 312V114l85.737-49.5L186.473 15z" fill="#FFDC0A"/><path fill-rule="evenodd" clip-rule="evenodd" d="M429.28 276.591h76.025c4.606 0 8.306 3.086 8.306 6.76v13.528c0 3.967-3.7 7.055-8.306 7.055H429.28c-4.606 0-8.28-3.088-8.28-7.055v-13.528c0-3.674 3.674-6.76 8.28-6.76zM421 304.523h92.611v2.497H421v-2.497zm-8.012 17.247h4.926c.929 0 1.837.588 1.837 1.52 0 .637-.908 1.225-1.837 1.225h-4.926c-.908 0-1.519-.588-1.519-1.225 0-.932.611-1.52 1.519-1.52zm102.166-.343h4.607c1.228 0 1.864.931 1.864 1.568 0 .932-.636 1.52-1.864 1.52h-4.607c-.93 0-1.838-.588-1.838-1.52 0-.637.908-1.568 1.838-1.568zM411.763 281.49h6.468v26.118h97.857V281.49h6.442c3.698 0 6.761 2.498 6.761 5.243V320.2h-13.203-111.087v-33.467c0-2.745 3.062-5.243 6.762-5.243z" fill="#FFED00"/><path d="M351.837 312.453v-65.43l88.59-15.649 19.568 17.209" stroke="#FFED00" stroke-width=".44" stroke-miterlimit="22.926"/><path fill-rule="evenodd" clip-rule="evenodd" d="M343.885 313.645h14.579c2.752 0 5.437 1.741 5.437 4.499 0 1.885-2.685 3.626-5.437 3.626h-14.579c-2.688 0-4.499-1.741-4.499-3.626 0-2.758 1.811-4.499 4.499-4.499zM468.456 255.804c-1.423 1.65-3.612 2.397-5.765 2.085l6.978-8.093c.73 1.962.305 4.247-1.213 6.008zm-24.88-21.662c-.434.504-.402 1.198.121 1.65l9.966 8.592c-.079.58.094 1.397.597 1.83l3.161 2.726.242.208c-1.744 3.568-1.084 7.892 1.972 10.738l.141.121 11.552-13.397a8.978 8.978 0 0 0-10.94-.623l-.242-.208-3.161-2.725c-.503-.434-1.223-.617-1.908-.311l-9.965-8.592c-.523-.451-1.206-.391-1.536-.009z" fill="#FFED00"/><path d="M60.112 244.439V266.8h1.597v-23.789H51.14V266.8h1.563v-22.361h7.409zm4.86-1.428V266.8h1.563v-9.787h2.956c3.773 0 5.506-1.869 5.506-5.642v-2.582c0-3.467-1.428-5.778-5.098-5.778h-4.928zm1.563 12.575v-11.147h3.364c2.65 0 3.535 1.665 3.535 4.248v2.786c0 2.889-1.19 4.113-3.943 4.113h-2.956zm11.248 5.403c0 3.466 1.597 6.015 5.2 6.015 3.67 0 5.267-2.549 5.267-6.015v-12.167c0-3.466-1.597-6.015-5.267-6.015-3.603 0-5.2 2.549-5.2 6.015v12.167zm1.564-12.268c0-2.583 1.019-4.486 3.636-4.486 2.65 0 3.704 1.903 3.704 4.486v12.37c0 2.583-1.053 4.486-3.704 4.486-2.617 0-3.636-1.903-3.636-4.486v-12.37zm20.866-2.957v-2.753h-1.53v2.753h-1.937c-3.908 0-5.471 2.209-5.471 5.981v6.491c0 3.772 1.563 5.981 5.471 5.981h1.937v2.583h1.53v-2.583h1.937c3.874 0 5.471-2.209 5.471-5.981v-6.491c0-3.772-1.597-5.981-5.471-5.981h-1.937zm-1.53 1.393v15.667h-1.937c-2.854 0-3.942-1.631-3.942-4.486v-6.695c0-2.854 1.088-4.486 3.942-4.486h1.937zm1.53 15.667v-15.667h1.937c2.854 0 3.942 1.632 3.942 4.486v6.695c0 2.855-1.122 4.486-3.942 4.486h-1.937zm12.166-8.802v-9.583h7.816v-1.428h-9.38V266.8h9.38v-1.427h-7.816v-9.924h6.491v-1.427h-6.491zm15.938-11.215c-3.636 0-5.132 2.583-5.132 6.015v12.167c0 3.432 1.496 6.015 5.132 6.015 3.636 0 5.132-2.583 5.132-6.015v-2.719h-1.496v2.821c0 2.549-.985 4.452-3.602 4.452s-3.602-1.903-3.602-4.452v-12.37c0-2.549.985-4.486 3.602-4.486s3.602 1.937 3.602 4.486v2.073h1.496v-1.972c0-3.432-1.496-6.015-5.132-6.015zm13.254 0c-3.637 0-5.132 2.583-5.132 6.015v12.167c0 3.432 1.495 6.015 5.132 6.015 3.636 0 5.131-2.583 5.131-6.015v-2.719h-1.495v2.821c0 2.549-.986 4.452-3.602 4.452-2.617 0-3.603-1.903-3.603-4.452v-12.37c0-2.549.986-4.486 3.603-4.486 2.616 0 3.602 1.937 3.602 4.486v2.073h1.495v-1.972c0-3.432-1.495-6.015-5.131-6.015zm17.399 2.957V266.8h1.428v-23.789h-1.869l-4.554 12.506-2.753 7.851v-20.357h-1.427V266.8h1.699l3.874-11.045 3.602-9.991zm4.554 15.225c0 3.466 1.597 6.015 5.2 6.015 3.67 0 5.267-2.549 5.267-6.015v-12.167c0-3.466-1.597-6.015-5.267-6.015-3.603 0-5.2 2.549-5.2 6.015v12.167zm1.563-12.268c0-2.583 1.02-4.486 3.637-4.486 2.65 0 3.704 1.903 3.704 4.486v12.37c0 2.583-1.054 4.486-3.704 4.486-2.617 0-3.637-1.903-3.637-4.486v-12.37zm21.002 6.898V266.8h1.598v-23.789h-1.598v11.181h-7.408v-11.181h-1.563V266.8h1.563v-11.181h7.408zm14.545 5.914l1.19 5.267h1.563l-5.302-23.823h-2.276l-5.2 23.823h1.427l1.19-5.267h7.408zm-3.738-16.754l3.5 15.394h-6.932l3.432-15.394zm19.949-.34V266.8h1.597v-23.789h-8.87l-.714 18.012c-.068 2.379-.238 4.384-2.922 4.384v1.427h.306c3.5-.068 4.044-2.617 4.18-5.845l.611-16.55h5.812zm6.456 8.36v-9.788h-1.563V266.8h4.894c3.704 0 5.131-2.311 5.131-5.777v-2.583c0-3.772-1.733-5.641-5.539-5.641h-2.923zm0 12.574v-11.147h2.923c2.753 0 3.976 1.223 3.976 4.112v2.787c0 2.583-.917 4.248-3.568 4.248h-3.331zm20.527-9.754V266.8h1.597v-23.789h-1.597v11.181h-7.409v-11.181h-1.563V266.8h1.563v-11.181h7.409zm4.757 5.37c0 3.466 1.597 6.015 5.2 6.015 3.67 0 5.267-2.549 5.267-6.015v-12.167c0-3.466-1.597-6.015-5.267-6.015-3.603 0-5.2 2.549-5.2 6.015v12.167zm1.563-12.268c0-2.583 1.02-4.486 3.637-4.486 2.65 0 3.704 1.903 3.704 4.486v12.37c0 2.583-1.054 4.486-3.704 4.486-2.617 0-3.637-1.903-3.637-4.486v-12.37zm21.172-4.282v-1.428h-9.141V266.8h1.563v-22.361h7.578zm3.059 16.55c0 3.466 1.597 6.015 5.199 6.015 3.671 0 5.268-2.549 5.268-6.015v-12.167c0-3.466-1.597-6.015-5.268-6.015-3.602 0-5.199 2.549-5.199 6.015v12.167zm1.563-12.268c0-2.583 1.019-4.486 3.636-4.486 2.651 0 3.704 1.903 3.704 4.486v12.37c0 2.583-1.053 4.486-3.704 4.486-2.617 0-3.636-1.903-3.636-4.486v-12.37zm-87.474 39.795v23.789h1.563v-9.787h2.957c3.772 0 5.505-1.869 5.505-5.641v-2.583c0-3.467-1.427-5.778-5.097-5.778h-4.928zm1.563 12.575v-11.147h3.365c2.65 0 3.534 1.665 3.534 4.248v2.787c0 2.888-1.189 4.112-3.942 4.112h-2.957zm12.914-1.564v-9.583h7.817v-1.428h-9.38v23.789h9.38v-1.427h-7.817v-9.923h6.491v-1.428h-6.491zm23.857-8.36v21.138h1.495v-23.789h-2.243l-4.962 21.037-4.995-21.037h-2.243v23.789h1.393v-21.07l5.03 21.036h1.563l4.962-21.104zm4.655 15.327c0 3.466 1.597 6.015 5.2 6.015 3.67 0 5.267-2.549 5.267-6.015v-12.166c0-3.467-1.597-6.015-5.267-6.015-3.603 0-5.2 2.548-5.2 6.015v12.166zm1.564-12.268c0-2.583 1.019-4.486 3.636-4.486 2.651 0 3.704 1.903 3.704 4.486v12.37c0 2.583-1.053 4.486-3.704 4.486-2.617 0-3.636-1.903-3.636-4.486v-12.37zm21.002 6.899v11.18h1.597v-23.789h-1.597v11.181h-7.409v-11.181h-1.563v23.789h1.563v-11.18h7.409zm10.874 11.18v-22.361h4.86v-1.428h-11.283v1.428h4.86v22.361h1.563zm17.4-5.267l1.19 5.267h1.563l-5.302-23.823h-2.277l-5.199 23.823h1.427l1.19-5.267h7.408zm-3.738-16.754l3.5 15.394h-6.933l3.433-15.394z" fill="#1F1D1A"/><path fill-rule="evenodd" clip-rule="evenodd" d="M101.216 226.877v-20.534H94.54v-79.487h-9.952v79.235H62.921v-79.235h-9.7v88.179h38.422v11.842h9.573zm200.057-60.34l-.002 8.818h-10.948v39.68h-9.826v-88.179h9.826v39.681h10.95zm-119.045-.63V135.8h26.454v-8.944h-36.28v88.179h36.28v-8.944h-26.454v-31.366h21.541v-8.818h-21.541z" fill="#1F1D1A"/></g><defs><filter id="filter0_d" x=".868" y=".868" width="594.235" height="438.395" filterUnits="userSpaceOnUse" color-interpolation-filters="sRGB"><feFlood flood-opacity="0" result="BackgroundImageFix"/><feColorMatrix in="SourceAlpha" values="0 0 0 0 0 0 0 0 0 0 0 0 0 0 0 0 0 0 127 0"/><feOffset dx="7.066" dy="7.066"/><feGaussianBlur stdDeviation="10.599"/><feColorMatrix values="0 0 0 0 0 0 0 0 0 0 0 0 0 0 0 0 0 0 0.3 0"/><feBlend in2="BackgroundImageFix" result="effect1_dropShadow"/><feBlend in="SourceGraphic" in2="effect1_dropShadow" result="shape"/></filter></defs></svg>