<svg width="42" height="42" viewBox="0 0 42 42" fill="none" xmlns="http://www.w3.org/2000/svg">
<path d="M32.7313 16.8681C32.7313 8.10509 25.6276 1 16.8653 1C8.10301 1 1 8.10509 1 16.8681C1 25.6276 8.10301 32.7327 16.8653 32.7327C25.6276 32.7327 32.7313 25.6276 32.7313 16.8681Z" stroke="white" stroke-width="1.0583" stroke-miterlimit="10" stroke-linecap="round"/>
<path d="M29 17.0013C29 10.3737 23.6271 5 16.9997 5C10.3724 5 5 10.3737 5 17.0013C5 23.6263 10.3724 29 16.9997 29C23.6271 29 29 23.6263 29 17.0013Z" stroke="white" stroke-width="1.0583" stroke-miterlimit="10" stroke-linecap="round"/>
<path d="M17.2871 35.4533C27.3193 35.4533 35.4524 27.3215 35.4524 17.2886" stroke="white" stroke-width="1.0583" stroke-miterlimit="10" stroke-linecap="round"/>
<path d="M31.5298 28.5635L40.0055 37.0406C40.8252 37.859 40.8252 39.1885 40.0055 40.0075C39.1859 40.8259 37.857 40.8259 37.0366 40.0075L28.5615 31.5338" stroke="white" stroke-width="1.0583" stroke-miterlimit="10" stroke-linecap="round"/>
<rect x="16" y="12" width="2" height="10" fill="white"/>
<rect x="12" y="18" width="2" height="10" transform="rotate(-90 12 18)" fill="white"/>
</svg>
