<svg width="76" height="88" viewBox="0 0 76 88" fill="none" xmlns="http://www.w3.org/2000/svg">
<g filter="url(#filter0_d)">
<path d="M59.7925 23.775C59.7925 11.7383 50.0352 1.98102 37.9996 1.98102C25.9629 1.98102 16.2056 11.7383 16.2056 23.775C16.2056 35.8119 25.9629 45.5679 37.9996 45.5679C50.0352 45.5679 59.7925 35.8119 59.7925 23.775Z" stroke="white" stroke-width="2" stroke-miterlimit="10"/>
<path d="M55.3113 23.7747C55.3113 14.2148 47.5616 6.46383 38.0005 6.46383" stroke="white" stroke-width="2" stroke-miterlimit="10" stroke-linecap="round"/>
<path d="M34.8218 45.5675V53.486H41.1784V45.5675" stroke="white" stroke-width="2" stroke-miterlimit="10"/>
<path d="M26.4609 31.6137H34.1538V21.2215H26.4609V31.6137Z" stroke="white" stroke-width="2" stroke-miterlimit="10" stroke-linejoin="round"/>
<path d="M34.1528 31.6144H41.846V15.9355H34.1528V31.6144Z" stroke="white" stroke-width="2" stroke-miterlimit="10" stroke-linejoin="round"/>
<path d="M41.8462 31.6137H49.5383V21.2215H41.8462V31.6137Z" stroke="white" stroke-width="2" stroke-miterlimit="10" stroke-linejoin="round"/>
<path d="M13.4151 61.5422L9.46191 65.7102" stroke="white" stroke-width="2" stroke-miterlimit="10" stroke-linecap="round"/>
<path d="M21.0055 65.7118L17.0562 61.5502" stroke="white" stroke-width="2" stroke-miterlimit="10" stroke-linecap="round"/>
<path d="M28.8566 61.2672L24.644 65.7082" stroke="white" stroke-width="2" stroke-miterlimit="10" stroke-linecap="round"/>
<path d="M10.2889 67.6275C10.2889 66.1674 9.10458 64.983 7.64448 64.983C6.18439 64.983 5 66.1674 5 67.6275C5 69.0887 6.18439 70.272 7.64448 70.272C9.10458 70.272 10.2889 69.0887 10.2889 67.6275Z" stroke="white" stroke-width="2" stroke-miterlimit="10" stroke-linecap="round"/>
<path d="M17.8837 59.6277C17.8837 58.1676 16.6993 56.9832 15.2392 56.9832C13.7791 56.9832 12.5947 58.1676 12.5947 59.6277C12.5947 61.0891 13.7791 62.2722 15.2392 62.2722C16.6993 62.2722 17.8837 61.0891 17.8837 59.6277Z" stroke="white" stroke-width="2" stroke-miterlimit="10" stroke-linecap="round"/>
<path d="M25.4703 67.6275C25.4703 66.1674 24.2872 64.983 22.8271 64.983C21.367 64.983 20.1826 66.1674 20.1826 67.6275C20.1826 69.0887 21.367 70.272 22.8271 70.272C24.2872 70.272 25.4703 69.0887 25.4703 67.6275Z" stroke="white" stroke-width="2" stroke-miterlimit="10" stroke-linecap="round"/>
<path d="M43.5608 70.7107V55.5143C43.5608 54.3944 42.6532 53.4868 41.5321 53.4868H34.464C33.3441 53.4868 32.4365 54.3944 32.4365 55.5143V70.7107" stroke="white" stroke-width="2" stroke-miterlimit="10" stroke-linecap="round"/>
<path d="M32.4365 70.7104V76.9703C32.4365 78.0913 33.3441 78.9988 34.464 78.9988H41.5321C42.6532 78.9988 43.5608 78.0913 43.5608 76.9703V70.7104" stroke="white" stroke-width="2" stroke-miterlimit="10" stroke-linecap="round"/>
<path d="M62.5815 61.5422L66.5357 65.7102" stroke="white" stroke-width="2" stroke-miterlimit="10" stroke-linecap="round"/>
<path d="M54.9956 65.7118L58.9437 61.5502" stroke="white" stroke-width="2" stroke-miterlimit="10" stroke-linecap="round"/>
<path d="M47.1431 61.2672L51.3556 65.7082" stroke="white" stroke-width="2" stroke-miterlimit="10" stroke-linecap="round"/>
<path d="M65.7109 67.6275C65.7109 66.1674 66.8953 64.983 68.3554 64.983C69.8153 64.983 70.9999 66.1674 70.9999 67.6275C70.9999 69.0887 69.8153 70.272 68.3554 70.272C66.8953 70.272 65.7109 69.0887 65.7109 67.6275Z" stroke="white" stroke-width="2" stroke-miterlimit="10" stroke-linecap="round"/>
<path d="M58.1147 59.6277C58.1147 58.1676 59.2991 56.9832 60.7592 56.9832C62.2191 56.9832 63.4037 58.1676 63.4037 59.6277C63.4037 61.0891 62.2191 62.2722 60.7592 62.2722C59.2991 62.2722 58.1147 61.0891 58.1147 59.6277Z" stroke="white" stroke-width="2" stroke-miterlimit="10" stroke-linecap="round"/>
<path d="M50.5273 67.6275C50.5273 66.1674 51.7119 64.983 53.1718 64.983C54.6332 64.983 55.8165 66.1674 55.8165 67.6275C55.8165 69.0887 54.6332 70.272 53.1718 70.272C51.7119 70.272 50.5273 69.0887 50.5273 67.6275Z" stroke="white" stroke-width="2" stroke-miterlimit="10" stroke-linecap="round"/>
</g>
<defs>
<filter id="filter0_d" x="0" y="0.981018" width="75.9999" height="87.0178" filterUnits="userSpaceOnUse" color-interpolation-filters="sRGB">
<feFlood flood-opacity="0" result="BackgroundImageFix"/>
<feColorMatrix in="SourceAlpha" type="matrix" values="0 0 0 0 0 0 0 0 0 0 0 0 0 0 0 0 0 0 127 0"/>
<feOffset dy="4"/>
<feGaussianBlur stdDeviation="2"/>
<feColorMatrix type="matrix" values="0 0 0 0 0 0 0 0 0 0 0 0 0 0 0 0 0 0 0.25 0"/>
<feBlend mode="normal" in2="BackgroundImageFix" result="effect1_dropShadow"/>
<feBlend mode="normal" in="SourceGraphic" in2="effect1_dropShadow" result="shape"/>
</filter>
</defs>
</svg>
