<svg width="989" height="455" viewBox="0 0 989 455" fill="none" xmlns="http://www.w3.org/2000/svg"><path stroke="#FD9900" stroke-width="3" d="M544.18 398.489l-452 54.697"/><g filter="url(#filter0_d)"><path stroke="#B34A0A" stroke-width="16.606" d="M544.296 91.767V14.682"/><path d="M523.856 263.946h45.389l11.347 15.508-6.079 62.033h-55.926l-6.079-62.033 11.348-15.508zm-9.085 110.294c6.032 0 7.541 1.456 9.803 4.367 2.262 2.912 4.525 21.108 19.607 21.108 9.469 0 15.082-9.462 15.082-14.557 0-18.196-24.132-22.563-24.132-22.563v-21.108h18.853v13.101s26.394 8.007 24.885 32.754c-1.461 23.977-25.417 28.218-29.165 28.634-7.472.83-9.133.525-15.775-1.661-4.473-1.471-7.473-4.151-9.133-5.812-1.661-1.66-3.404-5.058-4.747-8.788-1.176-3.266-1.508-8.734-1.508-8.734s-.477-4.436-1.508-7.279c-1.031-2.842-4.525-4.367-4.525-6.55 0-.899.313-1.615.754-2.184.442-.568 1.509-.728 1.509-.728z" fill="#B34A0A"/><path transform="rotate(111.575 237.683 288.093) skewX(.254)" stroke="#B34A0A" stroke-width="8.303" d="M0-4.151h99.35"/><path transform="matrix(.36772 .92994 .93156 -.3636 500 173)" stroke="#B34A0A" stroke-width="8.303" d="M0-4.151h99.35"/><path d="M722.903 8.303h-971.6v91.332H809.68L722.903 8.303z" stroke="#B34A0A" stroke-width="16.606"/><path transform="scale(-1.0002 .9998) rotate(-45 -107.308 593.501)" stroke="#B34A0A" stroke-width="16.606" d="M0-8.303h111.2"/><path stroke="#B34A0A" stroke-width="16.606" d="M535.698 14.388l-78.634 78.626m-86.996-1.247V14.682"/><path transform="scale(-1.0002 .9998) rotate(-45 -191.752 804.86)" stroke="#B34A0A" stroke-width="16.606" d="M0-8.303h111.2"/><path stroke="#B34A0A" stroke-width="16.606" d="M713.622 14.222l-82.386 81.033m88.187-3.923V14.945"/><path transform="scale(-1.0002 .9998) rotate(-45 -23.295 390.676)" stroke="#B34A0A" stroke-width="16.606" d="M0-8.303h111.2"/><path stroke="#B34A0A" stroke-width="16.606" d="M367.638 14.388l-78.634 78.626m-86.996-1.247V14.682"/><path transform="scale(-1.0002 .9998) rotate(-45 60.718 187.851)" stroke="#B34A0A" stroke-width="16.606" d="M0-8.303h111.2"/><path stroke="#B34A0A" stroke-width="16.606" d="M199.577 14.386l-78.634 78.626m-86.995-1.245V14.682m-8.601-.297L-53.288 93.01"/><ellipse rx="31.608" ry="31.605" transform="matrix(-1 0 0 1 614.863 107.992)" fill="#B34A0A"/><ellipse rx="31.608" ry="31.605" transform="matrix(-1 0 0 1 472.053 107.992)" fill="#B34A0A"/><path fill="#B34A0A" d="M335 120h410v120H335z"/></g><path stroke="#FD9900" stroke-width="3" d="M543.184 398.511l445 55"/><path d="M401.968 212.6h7.424v-16.768h-5.504v-39.424h-7.872v39.424h-22.464v-39.424h-7.872V203h36.288v9.6zm31.189-8.832c6.464 0 11.008-2.496 14.4-6.528l-4.608-4.032c-2.752 2.752-5.568 4.224-9.664 4.224-5.376 0-9.472-3.264-10.304-9.216h25.984c.064-.768.064-1.472.064-2.176 0-10.112-5.632-18.816-16.704-18.816-9.984 0-17.088 8.192-17.088 18.24v.128c0 10.816 7.808 18.176 17.92 18.176zm-10.304-20.672c.768-5.632 4.288-9.536 9.408-9.536 5.376 0 8.64 4.16 9.152 9.536h-18.56zM457.782 203h7.68v-14.144h16.768V203h7.744v-35.072h-7.744v13.888h-16.768v-13.888h-7.68V203zm42.875 0h7.68v-14.144h16.768V203h7.744v-35.072h-7.744v13.888h-16.768v-13.888h-7.68V203zm59.515.768c10.752 0 18.688-8.256 18.688-18.24v-.128c0-9.984-7.872-18.176-18.56-18.176-10.752 0-18.688 8.384-18.688 18.304v.128c0 9.984 7.872 18.112 18.56 18.112zm.128-6.72c-6.4 0-11.008-5.248-11.008-11.52v-.128c0-6.144 4.288-11.456 10.88-11.456 6.4 0 11.008 5.312 11.008 11.584v.128c0 6.208-4.288 11.392-10.88 11.392zm43.612 6.72c6.72 0 10.816-2.752 14.336-6.592l-4.672-4.544c-2.624 2.624-5.44 4.416-9.28 4.416-6.336 0-10.816-5.12-10.816-11.52v-.128c0-6.336 4.416-11.456 10.432-11.456 4.096 0 6.72 1.92 9.216 4.544l4.864-5.184c-3.264-3.584-7.424-6.08-14.016-6.08-10.496 0-18.176 8.384-18.176 18.304v.128c0 9.92 7.68 18.112 18.112 18.112zM635.01 203h7.68v-28.16h12.672v-6.912h-33.024v6.912h12.672V203zm28.147 0h6.976l17.6-23.424V203h7.68v-35.072h-7.296l-17.28 23.04v-23.04h-7.68V203zm42.808-26.176h8.512v-8.896h-8.512v8.896zm0 26.176h8.512v-8.896h-8.512V203z" fill="#fff"/><defs><filter id="filter0_d" x="-261" y="0" width="1094.02" height="424.4" filterUnits="userSpaceOnUse" color-interpolation-filters="sRGB"><feFlood flood-opacity="0" result="BackgroundImageFix"/><feColorMatrix in="SourceAlpha" values="0 0 0 0 0 0 0 0 0 0 0 0 0 0 0 0 0 0 127 0"/><feOffset dy="4"/><feGaussianBlur stdDeviation="2"/><feColorMatrix values="0 0 0 0 0 0 0 0 0 0 0 0 0 0 0 0 0 0 0.25 0"/><feBlend in2="BackgroundImageFix" result="effect1_dropShadow"/><feBlend in="SourceGraphic" in2="effect1_dropShadow" result="shape"/></filter></defs></svg>